<?xml version="1.0" encoding="iso-8859-1"?>
<!-- Generator: Adobe Illustrator 19.0.0, SVG Export Plug-In . SVG Version: 6.00 Build 0)  -->
<svg version="1.1" id="Layer_1" xmlns="http://www.w3.org/2000/svg" xmlns:xlink="http://www.w3.org/1999/xlink" x="0px" y="0px"
	 viewBox="0 0 491.52 491.52" style="enable-background:new 0 0 491.52 491.52;" xml:space="preserve">
<path style="fill:#64798A;" d="M469.453,0H22.067C9.88,0,0,9.88,0,22.067v447.387c0,12.187,9.88,22.067,22.067,22.067h447.387
	c12.185,0,22.067-9.88,22.067-22.067V22.067C491.52,9.88,481.639,0,469.453,0z"/>
<g>
	<rect x="35.748" y="91.361" style="fill:#EBF0F3;" width="420.045" height="364.39"/>
	<rect x="35.748" y="31.703" style="fill:#EBF0F3;" width="300.339" height="25.405"/>
</g>
<rect x="35.748" y="442.317" style="fill:#D5D6DB;" width="420.045" height="13.435"/>
<circle style="fill:#FCD462;" cx="363.827" cy="44.406" r="12.703"/>
<circle style="fill:#44C4A1;" cx="403.456" cy="44.406" r="12.703"/>
<circle style="fill:#E56353;" cx="443.085" cy="44.406" r="12.703"/>
<rect x="65.669" y="122.747" style="fill:#27A2DB;" width="55.199" height="21.78"/>
<rect x="157.67" y="122.747" style="fill:#E56353;" width="55.199" height="21.78"/>
<rect x="258.406" y="122.747" style="fill:#44C4A1;" width="118.118" height="21.78"/>
<rect x="65.669" y="306.304" style="fill:#27A2DB;" width="55.199" height="21.78"/>
<rect x="157.67" y="306.304" style="fill:#E56353;" width="55.199" height="21.78"/>
<rect x="258.406" y="306.304" style="fill:#44C4A1;" width="118.118" height="21.78"/>
<rect x="65.669" y="245.12" style="fill:#FCD462;" width="92.006" height="21.78"/>
<rect x="185.754" y="245.12" style="fill:#27A2DB;" width="55.199" height="21.78"/>
<rect x="269.056" y="245.12" style="fill:#D5D6DB;" width="107.489" height="21.78"/>
<g>
	<rect x="65.669" y="183.931" style="fill:#64798A;" width="55.199" height="21.78"/>
	<rect x="157.67" y="183.931" style="fill:#64798A;" width="120.09" height="21.78"/>
</g>
<rect x="311.654" y="183.931" style="fill:#E56353;" width="64.886" height="21.78"/>
<rect x="65.669" y="367.514" style="fill:#44C4A1;" width="55.199" height="21.78"/>
<rect x="157.67" y="367.514" style="fill:#64798A;" width="120.09" height="21.78"/>
<rect x="311.654" y="367.514" style="fill:#E56353;" width="64.886" height="21.78"/>
<ellipse style="opacity:0.25;fill:#27A2DB;enable-background:new    ;" cx="237.459" cy="265.23" rx="87.911" ry="87.911"/>
<path style="fill:#3A556A;" d="M307.355,356.513l18.335,18.334l21.351-21.351l-18.335-18.335
	c34.641-45.121,31.415-109.972-9.896-151.284c-44.939-44.939-117.8-44.938-162.74,0.001s-44.938,117.799,0.001,162.738
	C197.383,387.928,262.234,391.154,307.355,356.513z M175.287,327.401c-34.327-34.326-34.327-89.981,0-124.307
	c34.327-34.328,89.981-34.327,124.307,0c34.327,34.326,34.327,89.98,0,124.307C265.268,361.728,209.613,361.728,175.287,327.401z"/>
<path style="fill:#2F4859;" d="M320.053,376.735l28.876-28.875c1.438-1.438,3.769-1.438,5.207-0.001l10.947,10.948L331,392.89
	l-10.947-10.948C318.615,380.504,318.615,378.173,320.053,376.735z"/>
<path style="fill:#FCD462;" d="M327.159,400.272c-0.978-0.979-0.978-2.564,0-3.542l41.765-41.765c0.978-0.978,2.563-0.978,3.542,0
	l73.236,73.236l-45.307,45.307L327.159,400.272z"/>
<path style="fill:#F6C358;" d="M445.702,428.202l9.337,9.337c0.979,0.979,0.979,2.564,0.001,3.542l-41.766,41.766
	c-0.977,0.977-2.563,0.977-3.541-0.001l-9.338-9.337L445.702,428.202z"/>
<g>
</g>
<g>
</g>
<g>
</g>
<g>
</g>
<g>
</g>
<g>
</g>
<g>
</g>
<g>
</g>
<g>
</g>
<g>
</g>
<g>
</g>
<g>
</g>
<g>
</g>
<g>
</g>
<g>
</g>
</svg>
